<?xml version="1.0" standalone="no"?>
<!DOCTYPE svg PUBLIC "-//W3C//DTD SVG 20010904//EN"
 "http://www.w3.org/TR/2001/REC-SVG-20010904/DTD/svg10.dtd">
<svg version="1.0" xmlns="http://www.w3.org/2000/svg"
 width="9450.000000pt" height="9450.000000pt" viewBox="0 0 9450.000000 9450.000000"
 preserveAspectRatio="xMidYMid meet">

<g transform="translate(0.000000,9450.000000) scale(0.100000,-0.100000)"
fill="#000000" stroke="none">
<path d="M43930 77894 c-58 -2 -235 -8 -395 -14 -1693 -64 -3372 -301 -5030
-710 -3218 -794 -6264 -2242 -8930 -4243 -737 -553 -1422 -1128 -2108 -1769
-224 -210 -919 -905 -1125 -1125 -1212 -1299 -2246 -2662 -3150 -4153 -2141
-3531 -3362 -7529 -3562 -11665 -118 -2444 117 -4867 700 -7230 909 -3684
2668 -7126 5134 -10050 901 -1067 1945 -2111 2996 -2995 1818 -1528 3787
-2762 5933 -3719 3163 -1410 6617 -2141 10117 -2141 2942 0 5850 515 8590
1522 3759 1380 7144 3663 9856 6648 1081 1190 2057 2500 2891 3880 2344 3883
3573 8305 3573 12860 0 2942 -515 5850 -1522 8590 -1654 4503 -4594 8450
-8453 11347 -647 485 -1346 958 -2045 1381 -3454 2094 -7355 3308 -11395 3547
-503 29 -726 36 -1345 39 -344 2 -672 2 -730 0z m3925 -6795 c311 -29 471 -51
700 -93 80 -15 198 -40 265 -56 19 -5 62 -15 95 -24 255 -62 656 -194 842
-277 23 -11 44 -19 47 -19 3 0 34 -13 68 -29 35 -15 86 -38 113 -51 130 -58
420 -208 497 -257 21 -12 40 -23 42 -23 2 0 58 -33 123 -74 631 -393 1112
-817 1612 -1421 144 -175 410 -561 513 -745 14 -25 54 -97 89 -160 105 -187
214 -414 294 -611 25 -63 50 -123 55 -134 8 -19 34 -89 80 -220 12 -33 28 -80
35 -105 7 -25 25 -83 40 -130 45 -143 83 -292 124 -485 11 -55 25 -120 31
-145 17 -78 43 -247 59 -395 6 -55 16 -131 21 -170 22 -159 33 -598 21 -872
-6 -148 -16 -299 -21 -338 -5 -38 -15 -115 -21 -170 -12 -106 -18 -145 -43
-295 -20 -122 -31 -179 -51 -265 -9 -38 -20 -88 -25 -110 -5 -22 -16 -67 -25
-100 -9 -33 -23 -82 -30 -110 -31 -118 -47 -170 -94 -312 -53 -160 -120 -340
-152 -410 -10 -23 -19 -44 -19 -47 0 -2 -15 -37 -34 -78 -18 -40 -43 -95 -56
-123 -30 -67 -134 -276 -173 -345 -61 -110 -70 -126 -119 -210 -564 -957
-1404 -1766 -2397 -2309 -112 -61 -351 -178 -438 -215 -35 -14 -86 -37 -115
-50 -29 -13 -116 -47 -193 -76 -77 -29 -149 -56 -160 -60 -35 -14 -168 -57
-245 -80 -41 -12 -86 -25 -100 -30 -58 -18 -283 -77 -345 -89 -22 -5 -87 -18
-145 -30 -249 -50 -367 -67 -610 -90 -69 -6 -168 -16 -220 -21 -123 -13 -687
-13 -810 0 -52 5 -151 15 -220 21 -173 16 -342 38 -455 59 -223 42 -359 72
-485 106 -30 8 -73 20 -95 26 -22 6 -51 14 -65 18 -14 5 -59 18 -100 30 -77
23 -210 66 -245 80 -11 4 -83 31 -160 60 -77 29 -164 63 -193 76 -29 13 -80
36 -115 50 -87 37 -326 154 -438 215 -658 360 -1271 853 -1740 1399 -359 418
-636 833 -876 1311 -45 92 -83 169 -83 172 0 3 -18 44 -39 91 -86 185 -281
723 -281 775 0 10 -3 21 -7 25 -12 12 -93 339 -124 501 -18 97 -41 230 -45
265 -3 19 -9 60 -15 90 -25 137 -58 612 -58 848 -1 195 13 486 29 617 5 44 15
123 21 175 23 199 49 352 99 585 8 36 26 112 50 205 15 59 38 142 55 200 9 30
19 64 22 75 2 11 8 29 13 40 4 11 16 45 25 75 16 54 88 256 105 295 5 11 30
71 55 133 210 518 559 1108 896 1517 160 194 278 324 439 486 211 213 329 320
515 470 101 81 146 115 250 191 5 4 24 18 40 31 64 50 477 317 489 317 2 0 43
23 92 51 87 51 351 185 449 229 28 13 78 36 113 51 34 16 65 29 68 29 3 0 24
8 47 19 186 83 587 215 842 277 33 9 76 19 95 24 100 24 227 50 400 81 101 18
324 45 555 68 120 12 824 12 950 0z m-12040 -3607 c120 -12 182 -22 350 -53
61 -11 133 -24 160 -29 28 -5 66 -13 85 -19 19 -5 62 -17 95 -26 189 -51 444
-136 550 -184 11 -5 45 -20 75 -33 126 -53 361 -174 503 -259 350 -211 576
-388 868 -679 402 -402 677 -799 923 -1333 20 -43 36 -83 36 -88 0 -5 4 -17
10 -27 24 -42 117 -304 155 -437 9 -33 21 -71 26 -85 5 -14 13 -45 18 -70 6
-25 17 -74 26 -110 38 -160 69 -353 95 -605 12 -117 12 -653 0 -770 -25 -238
-60 -458 -95 -605 -9 -36 -20 -85 -26 -110 -5 -25 -13 -56 -18 -70 -5 -14 -17
-52 -26 -85 -35 -121 -117 -355 -154 -440 -5 -11 -20 -45 -32 -75 -52 -123
-203 -414 -285 -545 -208 -336 -380 -553 -658 -830 -286 -285 -631 -547 -966
-734 -88 -49 -375 -189 -432 -211 -29 -11 -62 -24 -73 -29 -11 -5 -36 -16 -57
-25 -20 -9 -41 -16 -47 -16 -6 0 -19 -4 -29 -10 -48 -26 -363 -121 -517 -155
-38 -9 -86 -20 -105 -25 -33 -9 -95 -20 -230 -40 -30 -5 -102 -14 -160 -20
-58 -6 -139 -15 -180 -20 -97 -13 -570 -13 -674 0 -45 5 -128 15 -186 21 -58
6 -127 15 -155 19 -140 22 -193 31 -225 39 -19 5 -69 17 -110 26 -209 46 -541
154 -720 233 -771 342 -1372 819 -1854 1472 -55 74 -204 298 -233 350 -11 19
-43 76 -71 125 -46 82 -133 258 -192 390 -58 129 -159 415 -200 570 -33 122
-47 182 -100 450 -11 54 -28 189 -40 325 -11 117 -11 714 0 830 14 144 28 259
40 315 5 28 19 95 30 150 74 381 194 729 378 1100 42 83 85 166 97 185 12 19
37 62 55 95 89 161 294 446 469 650 434 504 1041 941 1661 1195 30 12 69 28
85 35 41 18 316 109 390 129 33 9 74 21 90 26 17 4 64 16 105 25 41 9 91 20
110 25 19 5 80 16 135 25 55 9 120 20 145 25 25 5 105 14 179 20 74 5 137 12
140 15 9 10 651 -1 766 -13z m21081 -8941 c286 -49 551 -185 760 -387 201
-196 332 -432 401 -724 17 -71 18 -297 18 -4465 l0 -4390 -22 -87 c-91 -355
-278 -636 -556 -836 -359 -260 -807 -338 -1241 -218 -421 117 -797 472 -949
896 -50 142 -69 253 -76 455 l-6 189 -25 12 c-14 6 -56 19 -93 28 -143 33
-352 131 -687 321 -80 46 -167 95 -193 109 -26 15 -118 68 -205 117 -437 252
-804 460 -817 465 -13 5 -15 -149 -15 -1345 0 -1349 -2 -1426 -36 -1651 -41
-268 -150 -582 -287 -823 -21 -38 -36 -71 -33 -74 2 -3 96 -25 208 -48 659
-141 1441 -348 2248 -596 920 -283 1678 -556 2485 -896 394 -166 655 -280 995
-438 1184 -549 2559 -1310 3830 -2120 613 -390 1518 -1037 2280 -1629 324
-252 560 -445 560 -459 0 -20 -310 -501 -543 -842 -1183 -1732 -2573 -3301
-4143 -4676 -2922 -2561 -6387 -4387 -10134 -5343 -1699 -434 -3344 -671
-5190 -748 -627 -26 -1683 -14 -2390 28 -5466 320 -10646 2446 -14774 6063
-755 661 -1497 1397 -2170 2151 -694 778 -1365 1637 -1966 2515 -187 274 -410
616 -410 629 1 30 1112 761 1710 1125 129 79 255 156 280 171 262 162 1235
700 1780 985 482 253 1477 742 1965 967 1114 514 2032 900 3060 1285 531 199
1390 502 1767 624 125 40 226 74 225 75 -1 2 -55 16 -119 33 -393 103 -716
268 -1008 517 -209 178 -384 381 -523 605 -147 240 -238 458 -307 739 -28 116
-38 174 -55 312 -13 111 -15 622 -15 4283 0 4444 -2 4247 46 4485 101 501 321
921 674 1284 365 376 839 630 1345 722 256 46 -171 44 8294 44 8446 0 8015 2
8281 -44 281 -49 616 -178 870 -335 316 -196 624 -505 821 -821 103 -167 240
-472 275 -615 4 -17 11 -33 17 -36 5 -4 42 4 81 18 137 48 372 132 516 183
339 121 1075 361 1410 460 57 17 108 34 111 38 4 4 10 124 12 267 5 254 8 279
46 425 59 224 204 463 386 639 221 212 463 332 790 390 94 16 322 12 441 -8z"/>
</g>
</svg>
